<?xml version="1.0" encoding="utf-8"?>
<!-- Generator: Adobe Illustrator 21.1.0, SVG Export Plug-In . SVG Version: 6.00 Build 0)  -->
<svg version="1.1" id="Слой_1" xmlns="http://www.w3.org/2000/svg" xmlns:xlink="http://www.w3.org/1999/xlink" x="0px" y="0px"
	 width="34px" height="38px" viewBox="0 0 34 38" enable-background="new 0 0 34 38" xml:space="preserve">
<title>arrow</title>
<g id="Слой_2">
	<g id="Слой_1-2">
		<path fill="#FFFFFF" d="M33.3,15l-14-14.2h-0.1c-0.1-0.1-0.3-0.2-0.5-0.3c-0.1,0-0.2-0.1-0.2-0.1l-0.3-0.2l-0.3-0.1L17.6,0
			C17.4,0,17.2,0,17,0h0c-0.2,0-0.3,0-0.5,0.1l-0.2,0.1L16,0.2c-0.1,0-0.2,0.1-0.3,0.1l-0.2,0.1c-0.2,0.1-0.4,0.2-0.5,0.3h-0.1l0,0
			L0.8,15c-1.1,1.1-1,2.9,0.1,3.9c0.5,0.5,1.3,0.8,2,0.8c0.8,0,1.6-0.3,2.3-0.8l9.7-9.4v25c-0.1,1.4,0.9,2.6,2.3,2.7
			c1.4,0.1,2.6-0.9,2.7-2.3c0-0.1,0-0.3,0-0.4v-25l9.4,9.4c0.5,0.5,1.3,0.8,2,0.8c0.7,0,1.5-0.3,2-0.8C34.3,17.9,34.3,16.1,33.3,15z
			"/>
	</g>
</g>
</svg>
