<?xml version="1.0" encoding="utf-8"?>
<!-- Generator: Adobe Illustrator 21.1.0, SVG Export Plug-In . SVG Version: 6.00 Build 0)  -->
<svg version="1.1" id="Слой_1" xmlns="http://www.w3.org/2000/svg" xmlns:xlink="http://www.w3.org/1999/xlink" x="0px" y="0px"
	 width="30px" height="24px" viewBox="0 0 30 24" enable-background="new 0 0 30 24" xml:space="preserve">
<title>camera</title>
<g id="Слой_2">
	<g id="Слой_1-2">
		<path fill="#FFFFFF" d="M15,9c-2.5,0-4.5,2-4.5,4.5s2,4.5,4.5,4.5s4.5-2,4.5-4.5S17.5,9,15,9z M27,4.5h-3.6c-0.5,0-1-0.4-1.2-0.9
			l-0.9-2.8C21.1,0.4,20.6,0,20.1,0H9.9c-0.5,0-1,0.4-1.2,0.9L7.8,3.6C7.6,4.1,7.1,4.5,6.6,4.5H3c-1.7,0-3,1.3-3,3V21
			c0,1.7,1.3,3,3,3h24c1.7,0,3-1.3,3-3V7.5C30,5.8,28.7,4.5,27,4.5z M15,21c-4.1,0-7.5-3.4-7.5-7.5S10.9,6,15,6s7.5,3.4,7.5,7.5
			S19.1,21,15,21z M26,9.6c-0.6,0-1-0.5-0.9-1c0-0.6,0.5-1,1-0.9C26.6,7.6,27,8,27,8.5C27,9.1,26.5,9.6,26,9.6z"/>
	</g>
</g>
</svg>
