<?xml version="1.0" encoding="utf-8"?>
<!-- Generator: Adobe Illustrator 21.1.0, SVG Export Plug-In . SVG Version: 6.00 Build 0)  -->
<svg version="1.1" id="Слой_1" xmlns="http://www.w3.org/2000/svg" xmlns:xlink="http://www.w3.org/1999/xlink" x="0px" y="0px"
	 width="36px" height="36px" viewBox="0 0 36 36" enable-background="new 0 0 36 36" xml:space="preserve">
<title>fb</title>
<g id="Слой_2">
	<g id="Слой_1-2">
		<path fill="#FFFFFF" d="M31.6,0H4.2C1.9,0,0,1.9,0,4.2v27.4c0,2.3,1.9,4.2,4.2,4.2h27.4c2.3,0,4.2-1.9,4.2-4.2V4.2
			C35.8,1.9,33.9,0,31.6,0z M33,31.6c0,0.8-0.6,1.4-1.4,1.4c0,0,0,0,0,0h-8V21.6h4.3l0.7-4.3h-5v-3c0-1.1,0.9-2.1,2-2.1
			c0,0,0.1,0,0.1,0h2.9V7.8h-2.9c-3.6,0-6.4,2.9-6.4,6.4c0,0,0,0,0,0v3h-4.2v4.3h4.2V33H4.2c-0.8,0-1.4-0.6-1.4-1.4V4.2
			c0-0.8,0.6-1.4,1.4-1.4l0,0h27.4c0.8,0,1.4,0.6,1.4,1.4c0,0,0,0,0,0V31.6z"/>
	</g>
</g>
</svg>
