<?xml version="1.0" encoding="utf-8"?>
<!-- Generator: Adobe Illustrator 21.1.0, SVG Export Plug-In . SVG Version: 6.00 Build 0)  -->
<svg version="1.1" id="Слой_1" xmlns="http://www.w3.org/2000/svg" xmlns:xlink="http://www.w3.org/1999/xlink" x="0px" y="0px"
	 width="43px" height="35px" viewBox="0 0 43 35" enable-background="new 0 0 43 35" xml:space="preserve">
<title>flat</title>
<g id="Слой_2">
	<g id="Слой_1-2">
		<polygon fill="#5EB19B" points="18.9,0.7 18.9,2.6 26.8,2.6 26.8,5.2 28.8,5.2 28.8,2.6 40.5,2.6 40.5,18.3 28.8,18.3 28.8,13.1 
			26.8,13.1 26.8,14.4 14.4,14.4 14.4,16.4 26.8,16.4 26.8,28.1 28.8,28.1 28.8,20.3 40.5,20.3 40.5,32.1 2.6,32.1 2.6,16.4 
			7.8,16.4 7.8,19 9.8,19 9.8,14.4 2.6,14.4 2.6,2.7 12.3,2.7 12.3,0.6 0.6,0.6 0.6,2 0.6,2.7 0.6,34 42.5,34 42.5,0.7 		"/>
		<path fill="#5EB19B" d="M42.5,34.6H0.6C0.3,34.6,0,34.4,0,34c0,0,0,0,0,0V0.6C0,0.3,0.3,0,0.6,0h11.7c0.3,0,0.6,0.3,0.6,0.6v2.1
			c0,0.3-0.3,0.6-0.6,0.6H3.2v10.5h6.6c0.3,0,0.6,0.3,0.6,0.6V19c0,0.3-0.3,0.6-0.6,0.6c0,0,0,0,0,0h-2c-0.3,0-0.6-0.3-0.6-0.6v-2
			h-4v14.5h36.7V20.9H29.4v7.2c0,0.3-0.3,0.6-0.6,0.6h0h-2c-0.3,0-0.6-0.3-0.6-0.6v0V17H14.4c-0.3,0-0.6-0.3-0.6-0.6l0,0v-2
			c0-0.3,0.3-0.6,0.6-0.6h11.8v-0.7c0-0.3,0.3-0.6,0.6-0.6l0,0h2c0.3,0,0.6,0.3,0.6,0.6c0,0,0,0,0,0v4.6h10.5V3.2H29.4v2
			c0,0.3-0.3,0.6-0.6,0.6l0,0h-2c-0.3,0-0.6-0.3-0.6-0.6v0v-2h-7.2c-0.3,0-0.6-0.3-0.6-0.6c0,0,0,0,0,0v-2c0-0.3,0.3-0.6,0.6-0.6
			c0,0,0,0,0,0h23.5c0.3,0,0.6,0.3,0.6,0.6V34C43.1,34.3,42.8,34.6,42.5,34.6C42.5,34.6,42.5,34.6,42.5,34.6z M1.2,33.4h40.6V1.3
			H19.5V2h7.2c0.3,0,0.6,0.3,0.6,0.6c0,0,0,0,0,0v2h0.7v-2c0-0.3,0.3-0.6,0.6-0.6h11.8c0.3,0,0.6,0.3,0.6,0.6v15.7
			c0,0.3-0.3,0.6-0.6,0.6H28.7c-0.3,0-0.6-0.3-0.6-0.6v0v-4.6h-0.7v0.7c0,0.3-0.3,0.6-0.6,0.6l0,0H15v0.7h11.8
			c0.3,0,0.6,0.3,0.6,0.6v0v11.1h0.7v-7.2c0-0.3,0.3-0.6,0.6-0.6h0h11.8c0.3,0,0.6,0.3,0.6,0.6v11.8c0,0.3-0.3,0.6-0.6,0.6H2.6
			c-0.3,0-0.6-0.3-0.6-0.6V16.4c0-0.3,0.3-0.6,0.6-0.6h5.2c0.3,0,0.6,0.3,0.6,0.6l0,0v2h0.7V15H2.6C2.3,15,2,14.7,2,14.4V2.7
			c0-0.3,0.3-0.6,0.6-0.6h9.1V1.2H1.2V33.4z"/>
	</g>
</g>
</svg>
