<?xml version="1.0" encoding="utf-8"?>
<!-- Generator: Adobe Illustrator 21.1.0, SVG Export Plug-In . SVG Version: 6.00 Build 0)  -->
<svg version="1.1" id="Слой_1" xmlns="http://www.w3.org/2000/svg" xmlns:xlink="http://www.w3.org/1999/xlink" x="0px" y="0px"
	 width="42" height="35" viewBox="0 0 42 35" enable-background="new 0 0 42 35" xml:space="preserve">
<title>flat_bed</title>
<g id="Слой_2">
	<g id="Слой_1-2">
		<path fill="#5EB19B" d="M39.6,15V3.7c0-2-1.7-3.7-3.7-3.7H6.2c-2,0-3.7,1.7-3.7,3.7V15C1,15.5,0,16.9,0,18.5v14.8
			c0,0.7,0.6,1.2,1.2,1.2h4.9c0.7,0,1.2-0.6,1.2-1.2v-3.7h27.3v3.7c0,0.7,0.6,1.2,1.2,1.2h4.9c0.7,0,1.2-0.6,1.2-1.2V18.5
			C42,16.9,41,15.5,39.6,15z M4.9,3.7c0-0.7,0.6-1.2,1.2-1.2l0,0h29.7c0.7,0,1.2,0.6,1.2,1.2v11.1h-2.7c0.1-0.4,0.2-0.8,0.2-1.2
			v-2.5c0-2-1.7-3.7-3.7-3.7h-5c-2,0-3.7,1.7-3.7,3.7v2.5c0,0.4,0.1,0.8,0.2,1.2h-2.9c0.1-0.4,0.2-0.8,0.2-1.2v-2.5
			c0-2-1.7-3.7-3.7-3.7h-5c-2,0-3.7,1.7-3.7,3.7v2.5c0,0.4,0.1,0.8,0.2,1.2H4.9V3.7z M32.2,11.1v2.5c0,0.7-0.6,1.2-1.2,1.2l0,0h-5
			c-0.7,0-1.2-0.6-1.2-1.2v-2.5c0-0.7,0.6-1.2,1.2-1.2h5C31.6,9.9,32.2,10.4,32.2,11.1L32.2,11.1z M17.3,11.1v2.5
			c0,0.7-0.6,1.2-1.2,1.2l0,0h-5c-0.7,0-1.2-0.6-1.2-1.2v-2.5c0-0.7,0.6-1.2,1.2-1.2h5C16.8,9.9,17.3,10.4,17.3,11.1L17.3,11.1z
			 M39.6,32h-2.5v-3.7c0-0.7-0.6-1.2-1.2-1.2H6.2c-0.7,0-1.2,0.6-1.2,1.2V32H2.5v-7.4h37.1V32z M39.6,22.1H2.5v-3.7
			c0-0.7,0.6-1.2,1.2-1.2h34.7c0.7,0,1.2,0.6,1.2,1.2V22.1z"/>
	</g>
</g>
</svg>
