<?xml version="1.0" encoding="utf-8"?>
<!-- Generator: Adobe Illustrator 21.1.0, SVG Export Plug-In . SVG Version: 6.00 Build 0)  -->
<svg version="1.1" id="Слой_1" xmlns="http://www.w3.org/2000/svg" xmlns:xlink="http://www.w3.org/1999/xlink" x="0px" y="0px"
	 width="37px" height="36px" viewBox="0 0 37 36" enable-background="new 0 0 37 36" xml:space="preserve">
<title>map</title>
<g id="Слой_2">
	<g id="Слой_1-2">
		<polygon fill="none" stroke="#5EB19B" stroke-width="2" stroke-linecap="round" stroke-linejoin="round" points="1,9 4,3 6,1 
			14,1 19,7 20,7 21,6 27,6 30,4 31,3 36,3 36,7 31,10 31,14 36,18 36,21 31,22 28,23 22,24 25,29 23,34 20,35 17,27 12,21 11,18 
			7,14 2,14 		"/>
		<polyline fill="none" stroke="#5EB19B" stroke-width="1.5" stroke-linecap="round" stroke-linejoin="round" points="23,24 22,17 
			32,14 32,10 26,13 24,14 19,10 18,10 18,13 10,11 10,13 17,15 18,13 21,15 22,17 17,18 17,15 17,18 12,21 11,18 10,11 4,3 7,7 
			13,7 18,10 19,10 19,7 		"/>
	</g>
</g>
</svg>
