<?xml version="1.0" encoding="utf-8"?>
<!-- Generator: Adobe Illustrator 21.1.0, SVG Export Plug-In . SVG Version: 6.00 Build 0)  -->
<svg version="1.1" id="Слой_1" xmlns="http://www.w3.org/2000/svg" xmlns:xlink="http://www.w3.org/1999/xlink" x="0px" y="0px"
	 width="30px" height="8px" viewBox="0 0 30 8" enable-background="new 0 0 30 8" xml:space="preserve">
<title>dots</title>
<path fill="#5EB19B" d="M11,2.1c1.1-1.9,3.5-2.6,5.4-1.6c0.7,0.4,1.2,0.9,1.6,1.6c1.1,1.9,0.4,4.4-1.6,5.4S12.1,7.9,11,5.9
	C10.3,4.7,10.3,3.3,11,2.1z"/>
<path fill="#5EB19B" d="M22,2.1c1.1-1.9,3.5-2.6,5.4-1.6c0.7,0.4,1.2,0.9,1.6,1.6c1.1,1.9,0.4,4.4-1.6,5.4S23.1,7.9,22,5.9
	C21.3,4.7,21.3,3.3,22,2.1z"/>
<path fill="#5EB19B" d="M0.5,2.1C1.6,0.1,4-0.6,5.9,0.5c0.7,0.4,1.2,0.9,1.6,1.6C8.6,4,7.9,6.4,5.9,7.5S1.6,7.9,0.5,5.9
	C-0.2,4.7-0.2,3.3,0.5,2.1z"/>
</svg>
