<?xml version="1.0" encoding="utf-8"?>
<!-- Generator: Adobe Illustrator 21.1.0, SVG Export Plug-In . SVG Version: 6.00 Build 0)  -->
<svg version="1.1" id="Слой_1" xmlns="http://www.w3.org/2000/svg" xmlns:xlink="http://www.w3.org/1999/xlink" x="0px" y="0px"
	 viewBox="0 0 44.2 34" enable-background="new 0 0 44.2 34" xml:space="preserve">
<title>flat_size</title>
<g id="Слой_2">
	<g id="Слой_1-2">
		<path fill="#5EB19B" d="M44.2,0H20.6C20.3,0,19,0.6,19,0.9v2C19,3.2,20.3,4,20.6,4H26v1.5C26,5.9,28.1,6,28.5,6h2
			C30.8,6,30,5.9,30,5.5V4h10v27H4V17h4v2.3C8,19.6,9.2,20,9.5,20h2c0.3,0-0.5-0.4-0.5-0.7v-4.6c0-0.3,0.8-0.7,0.5-0.7H4V4h10
			c0.3,0,0-0.7,0-1V0.9C14,0.5,14.3,0,14,0H2.3C2,0,0,0.5,0,0.9V34h43V0.9C43,0.6,44.5,0,44.2,0z"/>
		<path fill="#5EB19B" d="M19.8,24.8v-3.3c0.8,0.6,1.6,1.1,2.5,1.5c1,0.4,2.1,0.6,3.2,0.6c1.7,0,3-0.6,3-1.8c0-0.5-0.3-1-0.8-1.3
			c-0.3-0.2-0.6-0.3-0.9-0.4L26.3,20L25,19.6l-1.1-0.4c-0.2-0.1-0.6-0.2-1-0.4c-0.3-0.1-0.7-0.3-1-0.5c-0.6-0.3-1.1-0.8-1.5-1.4
			c-0.3-0.7-0.5-1.4-0.5-2.1c0-1.3,0.5-2.5,1.6-3.2c1.2-0.9,2.7-1.3,4.2-1.2c1.7,0,3.5,0.4,5,1.3v3.1c-1.5-0.9-3.2-1.5-5-1.4
			c-1.7,0-2.6,0.5-2.6,1.5c0,0.5,0.3,0.9,0.8,1.1c0.4,0.2,0.8,0.3,1.3,0.5c0.4,0.1,1.2,0.3,1.7,0.5c1.2,0.3,2.3,0.9,3.3,1.6
			c1,0.7,1.6,1.9,1.5,3.2c0.1,1.4-0.5,2.7-1.6,3.5c-1.3,0.9-2.8,1.3-4.4,1.3C23.5,26.5,21.5,26,19.8,24.8z"/>
	</g>
</g>
</svg>
