<?xml version="1.0" encoding="utf-8"?>
<!-- Generator: Adobe Illustrator 21.1.0, SVG Export Plug-In . SVG Version: 6.00 Build 0)  -->
<svg version="1.1" id="Слой_1" xmlns="http://www.w3.org/2000/svg" xmlns:xlink="http://www.w3.org/1999/xlink" x="0px" y="0px"
	 width="32px" height="32px" viewBox="0 0 32 32" enable-background="new 0 0 32 32" xml:space="preserve">
<g>
	<title>background</title>
	<rect id="canvas_background" x="-1" y="-1" fill="none" width="34" height="34"/>
</g>
<g>
	<title>Layer 1</title>
	<g id="XMLID_138_">
		<path id="XMLID_142_" fill="#FFFFFF" d="M31.1,5.5c-0.4-1-0.9-1.9-1.8-2.8s-1.8-1.4-2.8-1.8s-2.2-0.7-3.9-0.7C20.9,0,20.3,0,16,0
			s-4.9,0-6.6,0.1S6.6,0.4,5.6,0.8S3.7,1.7,2.8,2.6S1.3,4.5,0.9,5.5S0.2,7.7,0.2,9.4c-0.1,1.7-0.1,2.2-0.1,6.6s0,4.9,0.1,6.6
			s0.3,2.9,0.7,3.9s0.9,1.9,1.8,2.8s1.8,1.4,2.8,1.8s2.2,0.7,3.9,0.7c1.7,0.1,2.2,0.1,6.6,0.1s4.9,0,6.6-0.1s2.9-0.3,3.9-0.7
			c1-0.4,1.9-0.9,2.8-1.8s1.4-1.8,1.8-2.8s0.7-2.2,0.7-3.9c0.1-1.7,0.1-2.2,0.1-6.6s0-4.9-0.1-6.6C31.8,7.7,31.5,6.5,31.1,5.5z
			 M29,22.4c-0.1,1.6-0.3,2.4-0.6,3c-0.3,0.7-0.6,1.3-1.2,1.8s-1.1,0.9-1.8,1.2c-0.6,0.2-1.4,0.5-3,0.6c-1.7,0.1-2.2,0.1-6.4,0.1
			s-4.8,0-6.4-0.1s-2.4-0.3-3-0.6c-0.7-0.3-1.3-0.6-1.8-1.2s-0.9-1.1-1.2-1.8c-0.2-0.6-0.5-1.4-0.6-3c-0.1-1.7-0.1-2.2-0.1-6.5
			s0-4.8,0.1-6.5c0.1-1.6,0.3-2.4,0.6-3c0.3-0.7,0.6-1.3,1.2-1.8s1.1-0.9,1.8-1.2C7.2,3.3,8,3,9.5,3c1.7-0.1,2.2-0.1,6.4-0.1
			s4.8,0,6.4,0.1c1.6,0.1,2.4,0.3,3,0.6c0.7,0.3,1.3,0.6,1.8,1.2s0.9,1.1,1.2,1.8c0.2,0.6,0.5,1.4,0.6,3c0.1,1.7,0.1,2.2,0.1,6.5
			S29,20.7,29,22.4z"/>
		<path id="XMLID_145_" fill="#FFFFFF" d="M16,7.8c-4.5,0-8.2,3.7-8.2,8.2s3.7,8.2,8.2,8.2s8.2-3.7,8.2-8.2S20.5,7.8,16,7.8z
			 M16,21.3c-2.9,0-5.3-2.4-5.3-5.3s2.4-5.3,5.3-5.3s5.3,2.4,5.3,5.3S18.9,21.3,16,21.3z"/>
		<circle id="XMLID_143_" fill="#FFFFFF" cx="24.5" cy="7.4" r="1.8"/>
	</g>
</g>
</svg>
