<?xml version="1.0" encoding="utf-8"?>
<!-- Generator: Adobe Illustrator 21.1.0, SVG Export Plug-In . SVG Version: 6.00 Build 0)  -->
<svg version="1.1" id="Слой_1" xmlns="http://www.w3.org/2000/svg" xmlns:xlink="http://www.w3.org/1999/xlink" x="0px" y="0px"
	 viewBox="0 0 49.1 73" enable-background="new 0 0 49.1 73" xml:space="preserve">
<title>logo-key</title>
<g id="Слой_2">
	<g id="Слой_1-2">
		<path fill="#5EB19B" d="M48.8,20.7C46.7,7.3,34.1-1.8,20.7,0.3s-22.5,14.6-20.4,28C1.9,38.8,10.1,47,20.6,48.7l-0.2,24.2h3.8l0,0
			H35v-7.4h-6.8l0.2-16.7C41.7,46.7,50.9,34.1,48.8,20.7z M12.1,35.7C6,28.8,6.6,18.2,13.5,12s17.5-5.5,23.7,1.4
			c6.1,6.9,5.5,17.5-1.4,23.7C28.9,43.3,18.3,42.6,12.1,35.7L12.1,35.7z"/>
	</g>
</g>
</svg>
