<?xml version="1.0" encoding="utf-8"?>
<!-- Generator: Adobe Illustrator 21.1.0, SVG Export Plug-In . SVG Version: 6.00 Build 0)  -->
<svg version="1.1" id="Слой_1" xmlns="http://www.w3.org/2000/svg" xmlns:xlink="http://www.w3.org/1999/xlink" x="0px" y="0px"
	 viewBox="0 0 277.6 73" enable-background="new 0 0 277.6 73" xml:space="preserve">
<title>Ресурс 1</title>
<g id="Слой_2">
	<g id="Слой_1-2">
		<path fill="#333333" d="M63,56.1V13.9h16.6c7.6,0,15.8,3.1,15.8,12.8c0,7.8-5.3,11.3-11.3,12.3l14.3,17.1H92L78.2,39.4H68.1v16.6
			H63z M68.1,34.6h11.7c5.1,0,10.4-1.7,10.4-8s-5.4-8-10.4-8H68.1L68.1,34.6z"/>
		<path fill="#333333" d="M114.6,26.4c11.2,0,15.2,9.1,13.4,17.3H105c0.6,6.1,6.1,8.6,11.9,8.6c3.3,0,6.6-0.8,9.6-2.4v4.7
			c-3.2,1.5-6.7,2.2-10.2,2.1c-8.6,0-16-4.9-16-15.2C100.2,31.5,107.8,26.4,114.6,26.4z M114.9,30.9c-4.9,0-9.5,3-9.9,8.6h18.7
			C124.2,36.4,122.3,30.9,114.9,30.9L114.9,30.9z"/>
		<path fill="#333333" d="M150,26.4c6.9,0,12.1,4.8,12.1,11.8v17.8h-4.8V38.8c0-5.4-3.3-8-7.8-8c-4.3,0-7.5,2.9-9.4,5.8V56h-4.8
			V27.2h4.3v4.3C142.1,28.3,146,26.5,150,26.4z"/>
		<path fill="#333333" d="M176.9,17v10.2h11.6v4.5h-11.6v14.9c0,4.4,2,5.7,6.2,5.7c2.2,0,4.4-0.4,6.4-1.3v4.5
			c-2.5,0.9-5.1,1.3-7.8,1.3c-5.6,0-9.6-3-9.6-9.3V31.6h-5.4v-4.5h5.4v-9L176.9,17z"/>
		<path fill="#333333" d="M207.3,26.4c11.1,0,15.2,9.1,13.4,17.3h-23c0.6,6.1,6.1,8.6,11.9,8.6c3.3,0,6.6-0.8,9.5-2.4v4.7
			c-3.2,1.5-6.7,2.2-10.2,2.1c-8.6,0-16-4.9-16-15.2C192.9,31.5,200.5,26.4,207.3,26.4z M207.6,30.9c-4.9,0-9.5,3-9.9,8.6h18.7
			C216.9,36.4,215,30.9,207.6,30.9L207.6,30.9z"/>
		<path fill="#333333" d="M244.7,26.6v4.8c-5.7-0.7-10.2,2-12,6.7v18h-4.8V27.2h4.3v5.1C234.6,28.5,239.7,26.1,244.7,26.6z"/>
		<path fill="#333333" d="M275.4,52.3c0.8,0,1.5-0.2,2.2-0.4v3.9c-1.2,0.4-2.4,0.7-3.6,0.7c-2.4,0-4.5-1-5.3-3.5
			c-3.2,2.6-7.2,4-11.3,3.9c-5.1,0-10.2-2.7-10.2-8.8c0-7.5,6.9-9.8,13.1-9.8c2.7,0,5.4,0.3,8,0.9v-1c0-4.3-3-7.2-8.3-7.2
			c-3.6,0-7.2,0.7-10.5,2.2v-4.7c3.5-1.2,7.3-1.9,11-1.9c7.7,0,12.6,4.2,12.6,12.3V50c-0.1,1.1,0.6,2.1,1.7,2.2
			C275,52.3,275.2,52.3,275.4,52.3z M258.4,52.6c3.7,0,7.3-1.5,9.9-4.2v-5.3c-2.4-0.5-4.9-0.8-7.4-0.8c-4.2,0-8.8,1.3-8.8,5.5
			C252.1,51.1,255.2,52.6,258.4,52.6z"/>
		<path fill="#5EB19B" d="M48.8,20.7C46.7,7.3,34.1-1.8,20.7,0.3s-22.5,14.6-20.4,28C1.9,38.8,10.1,47,20.6,48.7l-0.2,24.2h3.8l0,0
			H35v-7.4h-6.8l0.2-16.7C41.7,46.7,50.9,34.1,48.8,20.7z M12.1,35.7C6,28.8,6.6,18.2,13.5,12s17.5-5.5,23.7,1.4
			c6.1,6.9,5.5,17.5-1.4,23.7C28.9,43.3,18.3,42.6,12.1,35.7L12.1,35.7z"/>
	</g>
</g>
</svg>
