<?xml version="1.0" encoding="utf-8"?>
<!-- Generator: Adobe Illustrator 21.1.0, SVG Export Plug-In . SVG Version: 6.00 Build 0)  -->
<svg version="1.1" id="Слой_1" xmlns="http://www.w3.org/2000/svg" xmlns:xlink="http://www.w3.org/1999/xlink" x="0px" y="0px"
	 width="38px" height="36px" viewBox="0 0 38 36" enable-background="new 0 0 38 36" xml:space="preserve">
<title>map</title>
<g id="Слой_2">
	<g id="Слой_1-2">
		<polygon fill="none" stroke="#5EB19B" stroke-width="2" stroke-linecap="round" stroke-linejoin="round" points="1,8.6 4.2,3.3 
			6.3,1.5 14.1,1 18.6,7.1 20.3,7.3 21,5.8 27,5.9 29.9,3.6 30.9,3.2 36.5,2.8 36.5,6.7 31.5,10.4 31.2,14 36.5,17.9 36.5,20.5 
			31.3,22.4 27.6,23.4 22.5,24.2 24.6,29.4 23.1,34.2 19.9,34.9 17.1,27.3 11.6,21.5 10.7,18.3 6.9,14.5 1.6,13.6 		"/>
		<polyline fill="none" stroke="#5EB19B" stroke-width="1.5" stroke-linecap="round" stroke-linejoin="round" points="22.5,24.2 
			21.6,17.4 31.6,14 31.7,10.4 25.7,12.7 24.1,13.7 19,9.6 18.3,10.3 17.7,12.9 9.6,10.8 9.9,12.9 16.9,15.3 17.7,12.9 20.7,15.3 
			21.6,17.4 16.6,17.9 16.9,15.3 16.6,17.9 11.6,21.5 10.7,18.3 9.6,10.8 4.2,3.3 7,7.3 13.1,6.8 18.3,10.3 19,9.6 18.6,7.1 		"/>
	</g>
</g>
</svg>
