<svg xmlns="http://www.w3.org/2000/svg" viewBox="0 0 44.2 34">
    <title>
        flat_size
    </title>
    <g fill="#5EB19B">
        <path d="M44.2 0H20.6c-.3 0-1.6.6-1.6.9v2c0 .3 1.3 1.1 1.6 1.1H26v1.5c0 .4 2.1.5 2.5.5h2c.3 0-.5-.1-.5-.5V4h10v27H4V17h4v2.3c0 .3 1.2.7 1.5.7h2c.3 0-.5-.4-.5-.7v-4.6c0-.3.8-.7.5-.7H4V4h10c.3 0 0-.7 0-1V.9c0-.4.3-.9 0-.9H2.3C2 0 0 .5 0 .9V34h43V.9c0-.3 1.5-.9 1.2-.9z"/>
        <path d="M19.8 24.8v-3.3c.8.6 1.6 1.1 2.5 1.5 1 .4 2.1.6 3.2.6 1.7 0 3-.6 3-1.8 0-.5-.3-1-.8-1.3-.3-.2-.6-.3-.9-.4l-.5-.1-1.3-.4-1.1-.4c-.2-.1-.6-.2-1-.4-.3-.1-.7-.3-1-.5-.6-.3-1.1-.8-1.5-1.4-.3-.7-.5-1.4-.5-2.1 0-1.3.5-2.5 1.6-3.2 1.2-.9 2.7-1.3 4.2-1.2 1.7 0 3.5.4 5 1.3v3.1c-1.5-.9-3.2-1.5-5-1.4-1.7 0-2.6.5-2.6 1.5 0 .5.3.9.8 1.1.4.2.8.3 1.3.5.4.1 1.2.3 1.7.5 1.2.3 2.3.9 3.3 1.6 1 .7 1.6 1.9 1.5 3.2.1 1.4-.5 2.7-1.6 3.5-1.3.9-2.8 1.3-4.4 1.3-2.2-.1-4.2-.6-5.9-1.8z"/>
    </g>
</svg>
