<svg xmlns="http://www.w3.org/2000/svg" viewBox="0 0 43.1 34.6">
    <title>
        flat_plan
    </title>
    <g fill="#5EB19B">
        <path d="M18.9.7v1.9h7.9v2.6h2V2.6h11.7v15.7H28.8v-5.2h-2v1.3H14.4v2h12.4v11.7h2v-7.8h11.7v11.8H2.6V16.4h5.2V19h2v-4.6H2.6V2.7h9.7V.6H.6V34h41.9V.7z"/>
        <path d="M42.5 34.6H.6c-.3 0-.6-.2-.6-.6V.6C0 .3.3 0 .6 0h11.7c.3 0 .6.3.6.6v2.1c0 .3-.3.6-.6.6H3.2v10.5h6.6c.3 0 .6.3.6.6V19c0 .3-.3.6-.6.6h-2c-.3 0-.6-.3-.6-.6v-2h-4v14.5h36.7V20.9H29.4v7.2c0 .3-.3.6-.6.6h-2c-.3 0-.6-.3-.6-.6V17H14.4c-.3 0-.6-.3-.6-.6v-2c0-.3.3-.6.6-.6h11.8v-.7c0-.3.3-.6.6-.6h2c.3 0 .6.3.6.6v4.6h10.5V3.2H29.4v2c0 .3-.3.6-.6.6h-2c-.3 0-.6-.3-.6-.6v-2H19c-.3 0-.6-.3-.6-.6v-2c0-.3.3-.6.6-.6h23.5c.3 0 .6.3.6.6V34c0 .3-.3.6-.6.6zM1.2 33.4h40.6V1.3H19.5V2h7.2c.3 0 .6.3.6.6v2h.7v-2c0-.3.3-.6.6-.6h11.8c.3 0 .6.3.6.6v15.7c0 .3-.3.6-.6.6H28.7c-.3 0-.6-.3-.6-.6v-4.6h-.7v.7c0 .3-.3.6-.6.6H15v.7h11.8c.3 0 .6.3.6.6v11.1h.7v-7.2c0-.3.3-.6.6-.6h11.8c.3 0 .6.3.6.6V32c0 .3-.3.6-.6.6H2.6c-.3 0-.6-.3-.6-.6V16.4c0-.3.3-.6.6-.6h5.2c.3 0 .6.3.6.6v2h.7V15H2.6c-.3 0-.6-.3-.6-.6V2.7c0-.3.3-.6.6-.6h9.1v-.9H1.2v32.2z"/>
    </g>
</svg>
