<svg xmlns="http://www.w3.org/2000/svg" width="38" height="36" viewBox="0 0 38 36">
    <title>
        map
    </title>
    <g fill="none" stroke="#5EB19B" stroke-linecap="round" stroke-linejoin="round">
        <path stroke-width="2" d="M1 8.6l3.2-5.3 2.1-1.8 7.8-.5 4.5 6.1 1.7.2.7-1.5 6 .1 2.9-2.3 1-.4 5.6-.4v3.9l-5 3.7-.3 3.6 5.3 3.9v2.6l-5.2 1.9-3.7 1-5.1.8 2.1 5.2-1.5 4.8-3.2.7-2.8-7.6-5.5-5.8-.9-3.2-3.8-3.8-5.3-.9z"/>
        <path stroke-width="1.5" d="M22.5 24.2l-.9-6.8 10-3.4.1-3.6-6 2.3-1.6 1L19 9.6l-.7.7-.6 2.6-8.1-2.1.3 2.1 7 2.4.8-2.4 3 2.4.9 2.1-5 .5.3-2.6-.3 2.6-5 3.6-.9-3.2-1.1-7.5-5.4-7.5 2.8 4 6.1-.5 5.2 3.5.7-.7-.4-2.5"/>
    </g>
</svg>
