<svg xmlns="http://www.w3.org/2000/svg" width="30" height="8" viewBox="0 0 30 8">
    <title>
        dots
    </title>
    <path fill="#5EB19B" d="M11 2.1C12.1.2 14.5-.5 16.4.5c.7.4 1.2.9 1.6 1.6 1.1 1.9.4 4.4-1.6 5.4s-4.3.4-5.4-1.6a3.7 3.7 0 0 1 0-3.8z"/>
    <path fill="#5EB19B" d="M22 2.1C23.1.2 25.5-.5 27.4.5c.7.4 1.2.9 1.6 1.6 1.1 1.9.4 4.4-1.6 5.4s-4.3.4-5.4-1.6a3.7 3.7 0 0 1 0-3.8z"/>
    <path fill="#5EB19B" d="M.5 2.1C1.6.1 4-.6 5.9.5c.7.4 1.2.9 1.6 1.6 1.1 1.9.4 4.3-1.6 5.4S1.6 7.9.5 5.9a3.7 3.7 0 0 1 0-3.8z"/>
</svg>
