<svg xmlns="http://www.w3.org/2000/svg" viewBox="0 0 42 34.5">
    <title>
        flat_beds
    </title>
    <path fill="#5EB19B" d="M39.6 15V3.7c0-2-1.7-3.7-3.7-3.7H6.2c-2 0-3.7 1.7-3.7 3.7V15C1 15.5 0 16.9 0 18.5v14.8c0 .7.6 1.2 1.2 1.2h4.9c.7 0 1.2-.6 1.2-1.2v-3.7h27.3v3.7c0 .7.6 1.2 1.2 1.2h4.9c.7 0 1.2-.6 1.2-1.2V18.5c.1-1.6-.9-3-2.3-3.5zM4.9 3.7c0-.7.6-1.2 1.2-1.2h29.7c.7 0 1.2.6 1.2 1.2v11.1h-2.7c.1-.4.2-.8.2-1.2v-2.5c0-2-1.7-3.7-3.7-3.7h-5c-2 0-3.7 1.7-3.7 3.7v2.5c0 .4.1.8.2 1.2h-2.9c.1-.4.2-.8.2-1.2v-2.5c0-2-1.7-3.7-3.7-3.7h-5c-2 0-3.7 1.7-3.7 3.7v2.5c0 .4.1.8.2 1.2H4.9V3.7zm27.3 7.4v2.5c0 .7-.6 1.2-1.2 1.2h-5c-.7 0-1.2-.6-1.2-1.2v-2.5c0-.7.6-1.2 1.2-1.2h5c.6 0 1.2.5 1.2 1.2zm-14.9 0v2.5c0 .7-.6 1.2-1.2 1.2h-5c-.7 0-1.2-.6-1.2-1.2v-2.5c0-.7.6-1.2 1.2-1.2h5c.7 0 1.2.5 1.2 1.2zM39.6 32h-2.5v-3.7c0-.7-.6-1.2-1.2-1.2H6.2c-.7 0-1.2.6-1.2 1.2V32H2.5v-7.4h37.1V32zm0-9.9H2.5v-3.7c0-.7.6-1.2 1.2-1.2h34.7c.7 0 1.2.6 1.2 1.2v3.7z"/>
</svg>
