<svg xmlns="http://www.w3.org/2000/svg" width="32" height="32" viewBox="0 0 32 32">
    <title>
        background
    </title>
    <path fill="none" d="M-1-1h34v34H-1z"/>
    <g>
        <title>
            Layer 1
        </title>
        <g fill="#FFF">
            <path d="M31.1 5.5c-.4-1-.9-1.9-1.8-2.8S27.5 1.3 26.5.9 24.3.2 22.6.2C20.9 0 20.3 0 16 0s-4.9 0-6.6.1-2.8.3-3.8.7-1.9.9-2.8 1.8S1.3 4.5.9 5.5.2 7.7.2 9.4C.1 11.1.1 11.6.1 16s0 4.9.1 6.6.3 2.9.7 3.9.9 1.9 1.8 2.8 1.8 1.4 2.8 1.8 2.2.7 3.9.7c1.7.1 2.2.1 6.6.1s4.9 0 6.6-.1 2.9-.3 3.9-.7c1-.4 1.9-.9 2.8-1.8s1.4-1.8 1.8-2.8.7-2.2.7-3.9c.1-1.7.1-2.2.1-6.6s0-4.9-.1-6.6c0-1.7-.3-2.9-.7-3.9zM29 22.4c-.1 1.6-.3 2.4-.6 3-.3.7-.6 1.3-1.2 1.8s-1.1.9-1.8 1.2c-.6.2-1.4.5-3 .6-1.7.1-2.2.1-6.4.1s-4.8 0-6.4-.1-2.4-.3-3-.6c-.7-.3-1.3-.6-1.8-1.2s-.9-1.1-1.2-1.8c-.2-.6-.5-1.4-.6-3-.1-1.7-.1-2.2-.1-6.5s0-4.8.1-6.5c.1-1.6.3-2.4.6-3 .3-.7.6-1.3 1.2-1.8s1.1-.9 1.8-1.2C7.2 3.3 8 3 9.5 3c1.7-.1 2.2-.1 6.4-.1s4.8 0 6.4.1c1.6.1 2.4.3 3 .6.7.3 1.3.6 1.8 1.2s.9 1.1 1.2 1.8c.2.6.5 1.4.6 3 .1 1.7.1 2.2.1 6.5v6.3z"/>
            <path d="M16 7.8c-4.5 0-8.2 3.7-8.2 8.2s3.7 8.2 8.2 8.2 8.2-3.7 8.2-8.2-3.7-8.2-8.2-8.2zm0 13.5c-2.9 0-5.3-2.4-5.3-5.3s2.4-5.3 5.3-5.3 5.3 2.4 5.3 5.3-2.4 5.3-5.3 5.3z"/>
            <circle cx="24.5" cy="7.4" r="1.8"/>
        </g>
    </g>
</svg>
