<svg xmlns="http://www.w3.org/2000/svg" viewBox="0 0 277.6 73">
    <title>
        Ресурс 1
    </title>
    <path fill="#333" d="M63 56.1V13.9h16.6c7.6 0 15.8 3.1 15.8 12.8 0 7.8-5.3 11.3-11.3 12.3l14.3 17.1H92L78.2 39.4H68.1V56H63zm5.1-21.5h11.7c5.1 0 10.4-1.7 10.4-8s-5.4-8-10.4-8H68.1v16z"/>
    <path fill="#333" d="M114.6 26.4c11.2 0 15.2 9.1 13.4 17.3h-23c.6 6.1 6.1 8.6 11.9 8.6 3.3 0 6.6-.8 9.6-2.4v4.7c-3.2 1.5-6.7 2.2-10.2 2.1-8.6 0-16-4.9-16-15.2-.1-10 7.5-15.1 14.3-15.1zm.3 4.5c-4.9 0-9.5 3-9.9 8.6h18.7c.5-3.1-1.4-8.6-8.8-8.6z"/>
    <path fill="#333" d="M150 26.4c6.9 0 12.1 4.8 12.1 11.8V56h-4.8V38.8c0-5.4-3.3-8-7.8-8-4.3 0-7.5 2.9-9.4 5.8V56h-4.8V27.2h4.3v4.3c2.5-3.2 6.4-5 10.4-5.1z"/>
    <path fill="#333" d="M176.9 17v10.2h11.6v4.5h-11.6v14.9c0 4.4 2 5.7 6.2 5.7 2.2 0 4.4-.4 6.4-1.3v4.5c-2.5.9-5.1 1.3-7.8 1.3-5.6 0-9.6-3-9.6-9.3V31.6h-5.4v-4.5h5.4v-9l4.8-1.1z"/>
    <path fill="#333" d="M207.3 26.4c11.1 0 15.2 9.1 13.4 17.3h-23c.6 6.1 6.1 8.6 11.9 8.6 3.3 0 6.6-.8 9.5-2.4v4.7c-3.2 1.5-6.7 2.2-10.2 2.1-8.6 0-16-4.9-16-15.2 0-10 7.6-15.1 14.4-15.1zm.3 4.5c-4.9 0-9.5 3-9.9 8.6h18.7c.5-3.1-1.4-8.6-8.8-8.6z"/>
    <path fill="#333" d="M244.7 26.6v4.8c-5.7-.7-10.2 2-12 6.7v18h-4.8V27.2h4.3v5.1c2.4-3.8 7.5-6.2 12.5-5.7z"/>
    <path fill="#333" d="M275.4 52.3c.8 0 1.5-.2 2.2-.4v3.9c-1.2.4-2.4.7-3.6.7-2.4 0-4.5-1-5.3-3.5-3.2 2.6-7.2 4-11.3 3.9-5.1 0-10.2-2.7-10.2-8.8 0-7.5 6.9-9.8 13.1-9.8 2.7 0 5.4.3 8 .9v-1c0-4.3-3-7.2-8.3-7.2-3.6 0-7.2.7-10.5 2.2v-4.7c3.5-1.2 7.3-1.9 11-1.9 7.7 0 12.6 4.2 12.6 12.3V50c-.1 1.1.6 2.1 1.7 2.2.2.1.4.1.6.1zm-17 .3c3.7 0 7.3-1.5 9.9-4.2v-5.3c-2.4-.5-4.9-.8-7.4-.8-4.2 0-8.8 1.3-8.8 5.5 0 3.3 3.1 4.8 6.3 4.8z"/>
    <path fill="#5EB19B" d="M48.8 20.7C46.7 7.3 34.1-1.8 20.7.3S-1.8 14.9.3 28.3C1.9 38.8 10.1 47 20.6 48.7l-.2 24.2H35v-7.4h-6.8l.2-16.7c13.3-2.1 22.5-14.7 20.4-28.1zm-36.7 15C6 28.8 6.6 18.2 13.5 12S31 6.5 37.2 13.4c6.1 6.9 5.5 17.5-1.4 23.7-6.9 6.2-17.5 5.5-23.7-1.4z"/>
</svg>
