<svg xmlns="http://www.w3.org/2000/svg" viewBox="0 0 214.5 42.9">
    <title>
        logo-text
    </title>
    <g fill="#333">
        <path d="M0 42.2V0h16.5c7.6 0 15.8 3.1 15.8 12.8C32.3 20.5 27 24 21 25.1l14.3 17.1H29L15.2 25.5H5.1v16.6H0zm5.1-21.5h11.7c5.1 0 10.4-1.7 10.4-8s-5.4-8-10.4-8H5.1v16z"/>
        <path d="M51.6 12.5c11.2 0 15.2 9.1 13.4 17.3H42c.6 6.1 6.1 8.6 11.9 8.6 3.3 0 6.6-.8 9.5-2.3v4.7c-3.2 1.5-6.7 2.2-10.3 2.1-8.6 0-16-4.9-16-15.2.1-10.1 7.6-15.2 14.5-15.2zm.3 4.5c-4.9 0-9.5 3-9.9 8.6h18.7c.5-3.1-1.5-8.6-8.8-8.6z"/>
        <path d="M86.9 12.5c6.9 0 12.1 4.8 12.1 11.8v17.8h-4.8V24.9c0-5.4-3.3-8-7.8-8-4.3 0-7.5 2.9-9.4 5.8v19.4h-4.8V13.2h4.3v4.3c2.6-3.1 6.4-5 10.4-5z"/>
        <path d="M113.9 3.1v10.2h11.6v4.5h-11.6v14.9c0 4.4 2 5.7 6.2 5.7 2.2 0 4.4-.5 6.4-1.3v4.5c-2.5.9-5.1 1.3-7.8 1.3-5.6 0-9.6-3-9.6-9.3V17.7h-5.4v-4.5h5.4v-9l4.8-1.1z"/>
        <path d="M144.3 12.5c11.1 0 15.2 9.1 13.4 17.3h-23c.6 6.1 6.1 8.6 11.9 8.6 3.3 0 6.6-.8 9.5-2.3v4.7c-3.2 1.5-6.7 2.2-10.2 2.1-8.6 0-16-4.9-16-15.2 0-10.1 7.5-15.2 14.4-15.2zm.3 4.5c-4.9 0-9.5 3-9.9 8.6h18.7c.5-3.1-1.5-8.6-8.8-8.6z"/>
        <path d="M181.7 12.6v4.8c-5.7-.7-10.2 2-12 6.7v18h-4.8V13.2h4.3v5.1c2.3-3.7 7.4-6.1 12.5-5.7z"/>
        <path d="M212.3 38.4c.8 0 1.5-.2 2.2-.4v3.9c-1.2.4-2.4.7-3.6.7-2.4 0-4.5-1-5.3-3.5-3.2 2.6-7.2 4-11.3 3.9-5.1 0-10.2-2.7-10.2-8.8 0-7.5 6.9-9.8 13.1-9.8 2.7 0 5.4.3 8 .9v-1c0-4.3-3-7.2-8.3-7.2-3.6 0-7.2.7-10.5 2.2v-4.7c3.5-1.2 7.3-1.9 11-1.9 7.7 0 12.6 4.2 12.6 12.3v11.3c-.1 1.1.6 2.1 1.7 2.2.3-.1.4-.1.6-.1zm-16.9.3c3.7 0 7.3-1.5 9.9-4.2v-5.3c-2.4-.5-4.9-.8-7.4-.8-4.2 0-8.8 1.3-8.8 5.5 0 3.3 3.1 4.8 6.3 4.8z"/>
    </g>
</svg>
