<?xml version="1.0" encoding="UTF-8"?><!DOCTYPE svg PUBLIC "-//W3C//DTD SVG 1.1//EN" "http://www.w3.org/Graphics/SVG/1.1/DTD/svg11.dtd"><svg xmlns="http://www.w3.org/2000/svg" xmlns:xlink="http://www.w3.org/1999/xlink"><symbol id="icon-arrow" viewBox="0 0 34 38">
<title>arrow</title>
<g id="&#x421;&#x43B;&#x43E;&#x439;_2">
	<g id="&#x421;&#x43B;&#x43E;&#x439;_1-2">
		<path d="M33.3,15l-14-14.2h-0.1c-0.1-0.1-0.3-0.2-0.5-0.3c-0.1,0-0.2-0.1-0.2-0.1l-0.3-0.2l-0.3-0.1L17.6,0
			C17.4,0,17.2,0,17,0h0c-0.2,0-0.3,0-0.5,0.1l-0.2,0.1L16,0.2c-0.1,0-0.2,0.1-0.3,0.1l-0.2,0.1c-0.2,0.1-0.4,0.2-0.5,0.3h-0.1l0,0
			L0.8,15c-1.1,1.1-1,2.9,0.1,3.9c0.5,0.5,1.3,0.8,2,0.8c0.8,0,1.6-0.3,2.3-0.8l9.7-9.4v25c-0.1,1.4,0.9,2.6,2.3,2.7
			c1.4,0.1,2.6-0.9,2.7-2.3c0-0.1,0-0.3,0-0.4v-25l9.4,9.4c0.5,0.5,1.3,0.8,2,0.8c0.7,0,1.5-0.3,2-0.8C34.3,17.9,34.3,16.1,33.3,15z
			">
	</path></g>
</g>
</symbol><symbol id="icon-camera" viewBox="0 0 30 24">
<title>camera</title>
<g id="&#x421;&#x43B;&#x43E;&#x439;_2">
	<g id="&#x421;&#x43B;&#x43E;&#x439;_1-2">
		<path d="M15,9c-2.5,0-4.5,2-4.5,4.5s2,4.5,4.5,4.5s4.5-2,4.5-4.5S17.5,9,15,9z M27,4.5h-3.6c-0.5,0-1-0.4-1.2-0.9
			l-0.9-2.8C21.1,0.4,20.6,0,20.1,0H9.9c-0.5,0-1,0.4-1.2,0.9L7.8,3.6C7.6,4.1,7.1,4.5,6.6,4.5H3c-1.7,0-3,1.3-3,3V21
			c0,1.7,1.3,3,3,3h24c1.7,0,3-1.3,3-3V7.5C30,5.8,28.7,4.5,27,4.5z M15,21c-4.1,0-7.5-3.4-7.5-7.5S10.9,6,15,6s7.5,3.4,7.5,7.5
			S19.1,21,15,21z M26,9.6c-0.6,0-1-0.5-0.9-1c0-0.6,0.5-1,1-0.9C26.6,7.6,27,8,27,8.5C27,9.1,26.5,9.6,26,9.6z">
	</path></g>
</g>
</symbol><symbol id="icon-chevron" viewBox="0 0 27 15">
<title>chevron</title>
<g id="&#x421;&#x43B;&#x43E;&#x439;_2">
	<g id="&#x421;&#x43B;&#x43E;&#x439;_1-2">
		<path d="M26.4,0.5c-0.7-0.7-1.8-0.7-2.5,0L13.5,11L3,0.5c-0.7-0.7-1.8-0.7-2.5,0s-0.7,1.8,0,2.5l11.7,11.7
			c0.7,0.7,1.8,0.7,2.5,0L26.4,3C27.1,2.3,27.1,1.2,26.4,0.5C26.4,0.5,26.4,0.5,26.4,0.5z">
	</path></g>
</g>
</symbol><symbol id="icon-fb" viewBox="0 0 36 36">
<title>fb</title>
<g id="&#x421;&#x43B;&#x43E;&#x439;_2">
	<g id="&#x421;&#x43B;&#x43E;&#x439;_1-2">
		<path d="M31.6,0H4.2C1.9,0,0,1.9,0,4.2v27.4c0,2.3,1.9,4.2,4.2,4.2h27.4c2.3,0,4.2-1.9,4.2-4.2V4.2
			C35.8,1.9,33.9,0,31.6,0z M33,31.6c0,0.8-0.6,1.4-1.4,1.4c0,0,0,0,0,0h-8V21.6h4.3l0.7-4.3h-5v-3c0-1.1,0.9-2.1,2-2.1
			c0,0,0.1,0,0.1,0h2.9V7.8h-2.9c-3.6,0-6.4,2.9-6.4,6.4c0,0,0,0,0,0v3h-4.2v4.3h4.2V33H4.2c-0.8,0-1.4-0.6-1.4-1.4V4.2
			c0-0.8,0.6-1.4,1.4-1.4l0,0h27.4c0.8,0,1.4,0.6,1.4,1.4c0,0,0,0,0,0V31.6z">
	</path></g>
</g>
</symbol><symbol id="icon-flat" viewBox="0 0 43 35">
<title>flat</title>
<g id="&#x421;&#x43B;&#x43E;&#x439;_2">
	<g id="&#x421;&#x43B;&#x43E;&#x439;_1-2">
		<polygon points="18.9,0.7 18.9,2.6 26.8,2.6 26.8,5.2 28.8,5.2 28.8,2.6 40.5,2.6 40.5,18.3 28.8,18.3 28.8,13.1 
			26.8,13.1 26.8,14.4 14.4,14.4 14.4,16.4 26.8,16.4 26.8,28.1 28.8,28.1 28.8,20.3 40.5,20.3 40.5,32.1 2.6,32.1 2.6,16.4 
			7.8,16.4 7.8,19 9.8,19 9.8,14.4 2.6,14.4 2.6,2.7 12.3,2.7 12.3,0.6 0.6,0.6 0.6,2 0.6,2.7 0.6,34 42.5,34 42.5,0.7 		">
		<path d="M42.5,34.6H0.6C0.3,34.6,0,34.4,0,34c0,0,0,0,0,0V0.6C0,0.3,0.3,0,0.6,0h11.7c0.3,0,0.6,0.3,0.6,0.6v2.1
			c0,0.3-0.3,0.6-0.6,0.6H3.2v10.5h6.6c0.3,0,0.6,0.3,0.6,0.6V19c0,0.3-0.3,0.6-0.6,0.6c0,0,0,0,0,0h-2c-0.3,0-0.6-0.3-0.6-0.6v-2
			h-4v14.5h36.7V20.9H29.4v7.2c0,0.3-0.3,0.6-0.6,0.6h0h-2c-0.3,0-0.6-0.3-0.6-0.6v0V17H14.4c-0.3,0-0.6-0.3-0.6-0.6l0,0v-2
			c0-0.3,0.3-0.6,0.6-0.6h11.8v-0.7c0-0.3,0.3-0.6,0.6-0.6l0,0h2c0.3,0,0.6,0.3,0.6,0.6c0,0,0,0,0,0v4.6h10.5V3.2H29.4v2
			c0,0.3-0.3,0.6-0.6,0.6l0,0h-2c-0.3,0-0.6-0.3-0.6-0.6v0v-2h-7.2c-0.3,0-0.6-0.3-0.6-0.6c0,0,0,0,0,0v-2c0-0.3,0.3-0.6,0.6-0.6
			c0,0,0,0,0,0h23.5c0.3,0,0.6,0.3,0.6,0.6V34C43.1,34.3,42.8,34.6,42.5,34.6C42.5,34.6,42.5,34.6,42.5,34.6z M1.2,33.4h40.6V1.3
			H19.5V2h7.2c0.3,0,0.6,0.3,0.6,0.6c0,0,0,0,0,0v2h0.7v-2c0-0.3,0.3-0.6,0.6-0.6h11.8c0.3,0,0.6,0.3,0.6,0.6v15.7
			c0,0.3-0.3,0.6-0.6,0.6H28.7c-0.3,0-0.6-0.3-0.6-0.6v0v-4.6h-0.7v0.7c0,0.3-0.3,0.6-0.6,0.6l0,0H15v0.7h11.8
			c0.3,0,0.6,0.3,0.6,0.6v0v11.1h0.7v-7.2c0-0.3,0.3-0.6,0.6-0.6h0h11.8c0.3,0,0.6,0.3,0.6,0.6v11.8c0,0.3-0.3,0.6-0.6,0.6H2.6
			c-0.3,0-0.6-0.3-0.6-0.6V16.4c0-0.3,0.3-0.6,0.6-0.6h5.2c0.3,0,0.6,0.3,0.6,0.6l0,0v2h0.7V15H2.6C2.3,15,2,14.7,2,14.4V2.7
			c0-0.3,0.3-0.6,0.6-0.6h9.1V1.2H1.2V33.4z">
	</path></polygon></g>
</g>
</symbol><symbol id="icon-flat_bed" viewBox="0 0 42 35">
<title>flat_bed</title>
<g id="&#x421;&#x43B;&#x43E;&#x439;_2">
	<g id="&#x421;&#x43B;&#x43E;&#x439;_1-2">
		<path d="M39.6,15V3.7c0-2-1.7-3.7-3.7-3.7H6.2c-2,0-3.7,1.7-3.7,3.7V15C1,15.5,0,16.9,0,18.5v14.8
			c0,0.7,0.6,1.2,1.2,1.2h4.9c0.7,0,1.2-0.6,1.2-1.2v-3.7h27.3v3.7c0,0.7,0.6,1.2,1.2,1.2h4.9c0.7,0,1.2-0.6,1.2-1.2V18.5
			C42,16.9,41,15.5,39.6,15z M4.9,3.7c0-0.7,0.6-1.2,1.2-1.2l0,0h29.7c0.7,0,1.2,0.6,1.2,1.2v11.1h-2.7c0.1-0.4,0.2-0.8,0.2-1.2
			v-2.5c0-2-1.7-3.7-3.7-3.7h-5c-2,0-3.7,1.7-3.7,3.7v2.5c0,0.4,0.1,0.8,0.2,1.2h-2.9c0.1-0.4,0.2-0.8,0.2-1.2v-2.5
			c0-2-1.7-3.7-3.7-3.7h-5c-2,0-3.7,1.7-3.7,3.7v2.5c0,0.4,0.1,0.8,0.2,1.2H4.9V3.7z M32.2,11.1v2.5c0,0.7-0.6,1.2-1.2,1.2l0,0h-5
			c-0.7,0-1.2-0.6-1.2-1.2v-2.5c0-0.7,0.6-1.2,1.2-1.2h5C31.6,9.9,32.2,10.4,32.2,11.1L32.2,11.1z M17.3,11.1v2.5
			c0,0.7-0.6,1.2-1.2,1.2l0,0h-5c-0.7,0-1.2-0.6-1.2-1.2v-2.5c0-0.7,0.6-1.2,1.2-1.2h5C16.8,9.9,17.3,10.4,17.3,11.1L17.3,11.1z
			 M39.6,32h-2.5v-3.7c0-0.7-0.6-1.2-1.2-1.2H6.2c-0.7,0-1.2,0.6-1.2,1.2V32H2.5v-7.4h37.1V32z M39.6,22.1H2.5v-3.7
			c0-0.7,0.6-1.2,1.2-1.2h34.7c0.7,0,1.2,0.6,1.2,1.2V22.1z">
	</path></g>
</g>
</symbol><symbol id="icon-flat_size" viewBox="0 0 45 34">
<title>flat_size</title>
<g id="&#x421;&#x43B;&#x43E;&#x439;_2">
	<g id="&#x421;&#x43B;&#x43E;&#x439;_1-2">
		<path d="M44.2,0H20.6C20.3,0,19,0.6,19,0.9v2C19,3.2,20.3,4,20.6,4H26v1.5C26,5.9,28.1,6,28.5,6h2
			C30.8,6,30,5.9,30,5.5V4h10v27H4V17h4v2.3C8,19.6,9.2,20,9.5,20h2c0.3,0-0.5-0.4-0.5-0.7v-4.6c0-0.3,0.8-0.7,0.5-0.7H4V4h10
			c0.3,0,0-0.7,0-1V0.9C14,0.5,14.3,0,14,0H2.3C2,0,0,0.5,0,0.9V34h43V0.9C43,0.6,44.5,0,44.2,0z">
		<path d="M19.8,24.8v-3.3c0.8,0.6,1.6,1.1,2.5,1.5c1,0.4,2.1,0.6,3.2,0.6c1.7,0,3-0.6,3-1.8c0-0.5-0.3-1-0.8-1.3
			c-0.3-0.2-0.6-0.3-0.9-0.4L26.3,20L25,19.6l-1.1-0.4c-0.2-0.1-0.6-0.2-1-0.4c-0.3-0.1-0.7-0.3-1-0.5c-0.6-0.3-1.1-0.8-1.5-1.4
			c-0.3-0.7-0.5-1.4-0.5-2.1c0-1.3,0.5-2.5,1.6-3.2c1.2-0.9,2.7-1.3,4.2-1.2c1.7,0,3.5,0.4,5,1.3v3.1c-1.5-0.9-3.2-1.5-5-1.4
			c-1.7,0-2.6,0.5-2.6,1.5c0,0.5,0.3,0.9,0.8,1.1c0.4,0.2,0.8,0.3,1.3,0.5c0.4,0.1,1.2,0.3,1.7,0.5c1.2,0.3,2.3,0.9,3.3,1.6
			c1,0.7,1.6,1.9,1.5,3.2c0.1,1.4-0.5,2.7-1.6,3.5c-1.3,0.9-2.8,1.3-4.4,1.3C23.5,26.5,21.5,26,19.8,24.8z">
	</path></path></g>
</g>
</symbol><symbol id="icon-in" viewBox="0 0 50 50">
<g>
	<path d="M24.8,11.9c-7,0-12.8,5.7-12.8,12.8s5.7,12.8,12.8,12.8s12.8-5.8,12.8-12.8S31.8,11.9,24.8,11.9z M24.8,32.9
		c-4.5,0-8.2-3.7-8.2-8.2s3.7-8.2,8.2-8.2s8.2,3.7,8.2,8.2S29.3,32.9,24.8,32.9z"/>
	<circle cx="38.1" cy="11.6" r="2.9"/>
	<path d="M45.6,4.1C43,1.4,39.3,0,35.1,0H14.5C5.8,0,0,5.8,0,14.5V35c0,4.3,1.4,8,4.2,10.7c2.7,2.6,6.3,3.9,10.4,3.9H35
		c4.3,0,7.9-1.4,10.5-3.9c2.7-2.6,4.1-6.3,4.1-10.6V14.5C49.6,10.3,48.2,6.7,45.6,4.1z M45.2,35.1c0,3.1-1.1,5.6-2.9,7.3
		S38,45,35,45H14.6c-3,0-5.5-0.9-7.3-2.6c-1.8-1.8-2.7-4.3-2.7-7.4V14.5c0-3,0.9-5.5,2.7-7.3c1.7-1.7,4.3-2.6,7.3-2.6h20.6
		c3,0,5.5,0.9,7.3,2.7c1.7,1.8,2.7,4.3,2.7,7.2V35.1L45.2,35.1z"/>
</g>
</symbol><symbol id="icon-map" viewBox="0 0 37 36">
<title>map</title>
<g id="&#x421;&#x43B;&#x43E;&#x439;_2">
	<g id="&#x421;&#x43B;&#x43E;&#x439;_1-2">
		<polygon stroke-width="2" stroke-linecap="round" stroke-linejoin="round" points="1,9 4,3 6,1 
			14,1 19,7 20,7 21,6 27,6 30,4 31,3 36,3 36,7 31,10 31,14 36,18 36,21 31,22 28,23 22,24 25,29 23,34 20,35 17,27 12,21 11,18 
			7,14 2,14 		">
		<polyline stroke-width="1.5" stroke-linecap="round" stroke-linejoin="round" points="23,24 22,17 
			32,14 32,10 26,13 24,14 19,10 18,10 18,13 10,11 10,13 17,15 18,13 21,15 22,17 17,18 17,15 17,18 12,21 11,18 10,11 4,3 7,7 
			13,7 18,10 19,10 19,7 		">
	</polyline></polygon></g>
</g>
</symbol><symbol id="icon-map_point" viewBox="0 0 34 51">
<title>map_point</title>
<g id="&#x421;&#x43B;&#x43E;&#x439;_2">
	<g id="&#x421;&#x43B;&#x43E;&#x439;_1-2">
		<path d="M33.4,14.2C31.9,5,23.3-1.2,14.1,0.3S-1.3,10.5,0.2,19.6C1.4,26.7,7,32.3,14.1,33.5L14,50.6h5.3l0.1-17
			C28.6,32.1,34.9,23.4,33.4,14.2z M24.5,25.4c-4.8,4.2-12,3.8-16.2-1s-3.8-12,1-16.2c4.8-4.2,12-3.8,16.2,1
			C29.7,13.9,29.3,21.2,24.5,25.4z">
	</path></g>
</g>
</symbol><symbol id="icon-metro" viewBox="0 0 43 26">
<title>metro</title>
<g id="&#x421;&#x43B;&#x43E;&#x439;_2">
	<g id="&#x421;&#x43B;&#x43E;&#x439;_1-2">
		<path id="path4178" d="M12.6,0L0,25.7h8.6l4.8-9.6l7.9,9.6l7.9-9.6l4.8,9.6h8.6L29.9,0l-8.6,11.9L12.6,0z">
	</path></g>
</g>
</symbol><symbol id="icon-user" viewBox="0 0 24 24">
<g id="info">
</g>
<g id="icons">
	<path id="user2" d="M12,0C5.4,0,0,5.4,0,12s5.4,12,12,12s12-5.4,12-12S18.6,0,12,0z M12,4c2.2,0,4,2.2,4,5s-1.8,5-4,5s-4-2.2-4-5
		S9.8,4,12,4z M18.6,19.5C16.9,21,14.5,22,12,22s-4.9-1-6.6-2.5c-0.4-0.4-0.5-1-0.1-1.4c1.1-1.3,2.6-2.2,4.2-2.7
		c0.8,0.4,1.6,0.6,2.5,0.6s1.7-0.2,2.5-0.6c1.7,0.5,3.1,1.4,4.2,2.7C19.1,18.5,19.1,19.1,18.6,19.5z"/>
</g>
</symbol></svg>